# xmcd
#
# Track frame offsets:
#	150
#	11680
#	26125
#	41860
#	53055
#	66790
#	81270
#	100690
#	112350
#	126017
#	137850
#	151855
#	164545
#	175610
#	186558
#	199698
#	212490
#	232820
#	249570
#	261885
#
# Disc length: 3651
#
# Revision: 1
# Processed by: cddbd v1.5.1PL0 Copyright (c) Steve Scherf et al.
# Submitted via: audiograbber 1.83.01
# Normalized: r0:DSETVAR1
#
DISCID=1b0e4114
DTITLE=Various Artist - Das goldene ABC der Volksmusik - CD2
DYEAR=1900
DGENRE=Volksmusik
TTITLE0=Heintje - Mama
TTITLE1=Ein Lied für jeden Sonnen-Strahl - Stefanie Hertel and Stefan Mross
TTITLE2=Sierra Madre - Oswald Sattler
TTITLE3=Der Appenzeller Jodler - Franzl Lang
TTITLE4=Monte Cristallo - Daniela and Dirk
TTITLE5=Aber dich gibt's nur einmal für mich - Patrizius und die Nielsen Brothers
TTITLE6=Evviva La Montagna - Coro Della S.A.T.
TTITLE7=Der weiße Mond von Maratonga - Lolita
TTITLE8=Hast a bisserl Zeit für mi - Alpentrio Tirol
TTITLE9=Trompetenecho - Slavko Avsenik und seine Original Oberkrainer
TTITLE10=Wie der Wind - Eva-Maria
TTITLE11=Tirolerzeit - Zellberg Buam
TTITLE12=Alles klar, alles klar - Judith and Mel
TTITLE13=Der weissblaue Himmel - Wolfgang Hermann
TTITLE14=Du bist so a lieber Kerl - Die Zillertaler
TTITLE15=Germany is schee - Marianne and Michael
TTITLE16=La Pastorella - Vico Toriani
TTITLE17=Cia D'Amore - Klostertaler
TTITLE18=Nimm dir wieder einmal Zeit - Geraldine Olivier
TTITLE19=Servus, pfüat Gott und auf Wiedersehn - Karl Moik
EXTD=
EXTT0=
EXTT1=
EXTT2=
EXTT3=
EXTT4=
EXTT5=
EXTT6=
EXTT7=
EXTT8=
EXTT9=
EXTT10=
EXTT11=
EXTT12=
EXTT13=
EXTT14=
EXTT15=
EXTT16=
EXTT17=
EXTT18=
EXTT19=
PLAYORDER=
